<svg xmlns="http://www.w3.org/2000/svg" xmlns:xlink="http://www.w3.org/1999/xlink" viewBox="0,0,256,256" width="48px" height="48px"><g fill="none" fill-rule="nonzero" stroke="none" stroke-width="1" stroke-linecap="butt" stroke-linejoin="miter" stroke-miterlimit="10" stroke-dasharray="" stroke-dashoffset="0" font-family="none" font-weight="none" font-size="none" text-anchor="none" style="mix-blend-mode: normal"><g transform="scale(5.33333,5.33333)"><path d="M7.179,38.583c0.215,-8.429 0.337,-13.263 0.538,-20.394c3.877,-0.133 21.247,-0.476 29.09,-0.444c1.129,0.005 2.026,0.935 1.986,2.064c-0.233,6.558 -0.364,14.518 -0.404,18.99c-0.01,1.093 -0.892,1.973 -1.985,1.98c-5.982,0.037 -21.652,-0.088 -27.253,-0.136c-1.118,-0.01 -2.001,-0.942 -1.972,-2.06z" fill="#1a4678"></path><path d="M7.75,18.266c0.125,-2.875 0.134,-4.921 0.375,-6.625c2.625,-0.625 20.493,-4.854 30.858,-5.796c0.206,1.924 0.253,3.864 0.142,5.796c-11.066,1.762 -20.338,3.51 -31.125,6.542" fill="#1a4678"></path><path d="M14.125,10.141l-4.134,10.119c-0.282,0.69 -1.193,0.84 -1.681,0.277l-0.56,-0.646l0.5,-8.25z" fill="#265488"></path><path d="M12.25,16.641l2.375,-6.375l6.5,-1.25l-2.625,6.5z" fill="#1e4384"></path><path d="M25.625,13.891l2.375,-6.375l6.5,-1.25l-2.625,6.5z" fill="#73a1b2"></path><path d="M32.375,12.891l2.5,-6.375l4.25,-0.625l-0.125,5.875z" fill="#e6e251"></path><path d="M11.375,18.591c0.643,0 0.645,-1 0,-1c-0.643,0 -0.645,1 0,1z" fill="#000000"></path><path d="M11.375,18.591c6.577,-0.152 13.155,-0.266 19.733,-0.325c1.5,-0.013 2.999,-0.023 4.499,-0.024c0.647,0 1.452,-0.128 2.017,0.248c0.821,0.546 0.661,1.501 0.633,2.353c-0.132,3.969 -0.22,7.939 -0.288,11.909c-0.029,1.697 -0.053,3.393 -0.071,5.09c-0.008,0.763 0.09,1.586 -0.582,2.114c-0.511,0.402 -1.166,0.323 -1.776,0.325c-2.647,0.009 -5.294,-0.002 -7.942,-0.014c-5.772,-0.026 -11.545,-0.069 -17.317,-0.117c-0.499,-0.004 -1.111,0.075 -1.586,-0.088c-1.065,-0.366 -1.019,-1.403 -0.995,-2.336c0.052,-2.033 0.104,-4.066 0.156,-6.099c0.091,-3.54 0.184,-7.079 0.281,-10.618c0.026,-0.941 0.052,-1.881 0.078,-2.822c0.018,-0.644 -0.982,-0.643 -1,0c-0.107,3.8 -0.209,7.599 -0.307,11.399c-0.053,2.053 -0.106,4.106 -0.158,6.16c-0.044,1.73 -0.592,4.198 1.326,5.141c0.98,0.482 2.401,0.265 3.469,0.274c1.393,0.011 2.786,0.022 4.18,0.033c3.321,0.025 6.642,0.047 9.963,0.064c2.96,0.015 5.92,0.029 8.88,0.025c1.248,-0.002 2.702,0.212 3.642,-0.793c0.565,-0.604 0.673,-1.33 0.681,-2.123c0.008,-0.807 0.018,-1.615 0.028,-2.422c0.055,-4.112 0.136,-8.224 0.251,-12.335c0.029,-1.027 0.06,-2.055 0.095,-3.082c0.029,-0.865 0.042,-1.656 -0.533,-2.363c-0.986,-1.213 -2.678,-0.928 -4.067,-0.924c-7.045,0.02 -14.09,0.149 -21.132,0.299c-0.72,0.015 -1.44,0.031 -2.16,0.048c-0.64,0.018 -0.643,1.018 0.002,1.003z" fill="#000000"></path><path d="M8.25,18.266c0.092,-2.158 0.064,-4.349 0.357,-6.492c-0.116,0.116 -0.233,0.233 -0.349,0.349c7.619,-1.814 15.29,-3.475 23.019,-4.746c2.557,-0.42 5.124,-0.795 7.705,-1.032c-0.167,-0.167 -0.333,-0.333 -0.5,-0.5c0.199,1.927 0.247,3.861 0.142,5.796c0.122,-0.161 0.245,-0.321 0.367,-0.482c-9.201,1.466 -18.358,3.163 -27.375,5.523c-0.622,0.163 -0.358,1.128 0.266,0.964c9.018,-2.36 18.175,-4.057 27.375,-5.523c0.222,-0.035 0.356,-0.28 0.367,-0.482c0.104,-1.935 0.057,-3.868 -0.142,-5.796c-0.026,-0.249 -0.209,-0.527 -0.5,-0.5c-4.802,0.443 -9.569,1.294 -14.301,2.205c-4.33,0.834 -8.644,1.757 -12.943,2.737c-1.25,0.285 -2.499,0.575 -3.746,0.872c-0.151,0.036 -0.327,0.187 -0.349,0.349c-0.305,2.236 -0.297,4.507 -0.393,6.758c-0.027,0.644 0.973,0.643 1,0z" fill="#000000"></path><path d="M19.417,33.454c0.013,-2.627 -0.028,-5.655 -0.039,-9.479c-0.002,-0.786 0.859,-1.271 1.528,-0.859c2.047,1.262 5.272,3.486 7.492,5.187c0.572,0.439 0.506,1.313 -0.124,1.664c-2.545,1.416 -5.558,3.246 -7.338,4.343c-0.669,0.412 -1.523,-0.07 -1.519,-0.856z" fill="#e6e251"></path><path d="M19.917,33.454c0.009,-1.958 -0.008,-3.916 -0.021,-5.874c-0.008,-1.161 -0.066,-2.336 -0.018,-3.496c0.052,-1.252 1.421,-0.135 1.909,0.182c1.703,1.104 3.372,2.262 5.009,3.46c0.449,0.328 2.095,1.17 1.226,1.809c-0.392,0.288 -0.881,0.495 -1.304,0.737c-0.502,0.288 -1.002,0.579 -1.501,0.872c-1.003,0.589 -2,1.187 -2.994,1.791c-0.438,0.266 -0.875,0.533 -1.311,0.801c-0.379,0.235 -0.956,0.347 -0.995,-0.282c-0.04,-0.639 -1.041,-0.644 -1,0c0.064,1.019 1.012,1.786 2.025,1.405c0.479,-0.181 0.932,-0.539 1.367,-0.804c0.54,-0.33 1.082,-0.657 1.624,-0.983c1.2,-0.72 2.405,-1.432 3.621,-2.125c0.889,-0.506 2.046,-1.04 1.669,-2.29c-0.153,-0.506 -0.559,-0.777 -0.959,-1.079c-0.51,-0.385 -1.025,-0.763 -1.543,-1.137c-1.087,-0.784 -2.188,-1.549 -3.302,-2.295c-0.505,-0.338 -1.012,-0.672 -1.524,-0.999c-0.423,-0.27 -0.861,-0.629 -1.379,-0.673c-0.432,-0.037 -0.874,0.115 -1.186,0.421c-0.493,0.483 -0.453,1.094 -0.45,1.734c0.011,2.942 0.051,5.883 0.037,8.825c-0.003,0.644 0.997,0.645 1,0z" fill="#000000"></path><path d="M7.447,20.066c0.454,0.822 1.288,1.801 2.347,1.319c0.498,-0.227 0.677,-0.715 0.885,-1.186c0.292,-0.661 0.582,-1.323 0.871,-1.986c1.131,-2.596 2.236,-5.203 3.317,-7.821c0.245,-0.594 -0.722,-0.853 -0.964,-0.266c-0.864,2.092 -1.744,4.177 -2.641,6.255c-0.437,1.011 -0.877,2.021 -1.321,3.029c-0.14,0.317 -0.313,1.092 -0.734,1.081c-0.447,-0.012 -0.713,-0.6 -0.896,-0.931c-0.312,-0.562 -1.176,-0.058 -0.864,0.506z" fill="#000000"></path><path d="M19.268,15.406c0.837,-2.157 1.725,-4.294 2.663,-6.41c0.11,-0.249 0.07,-0.534 -0.179,-0.684c-0.212,-0.127 -0.575,-0.067 -0.684,0.179c-0.973,2.194 -1.895,4.411 -2.764,6.648c-0.098,0.254 0.109,0.546 0.349,0.615c0.282,0.082 0.518,-0.097 0.615,-0.348z" fill="#000000"></path><path d="M24.925,13.811c-0.003,0.009 -0.006,0.017 -0.01,0.026c0.245,-0.1 0.49,-0.199 0.734,-0.299c-0.011,-0.006 -0.021,-0.012 -0.032,-0.018c0.06,0.06 0.12,0.12 0.179,0.179c-0.01,-0.015 -0.02,-0.029 -0.03,-0.044c0.023,0.084 0.046,0.168 0.068,0.252c-0.007,-0.093 0.094,-0.277 0.124,-0.368c0.037,-0.112 0.075,-0.224 0.113,-0.335c0.089,-0.26 0.18,-0.52 0.274,-0.778c0.188,-0.517 0.385,-1.031 0.592,-1.54c0.413,-1.016 0.87,-2.013 1.36,-2.993c0.287,-0.574 -0.576,-1.081 -0.863,-0.505c-0.581,1.164 -1.112,2.352 -1.592,3.56c-0.232,0.584 -0.451,1.174 -0.658,1.767c-0.166,0.476 -0.658,1.344 -0.04,1.685c0.301,0.167 0.622,0.006 0.734,-0.299c0.003,-0.009 0.006,-0.017 0.01,-0.026c0.225,-0.602 -0.741,-0.863 -0.963,-0.264z" fill="#000000"></path><path d="M32.753,12.711c1.003,-2.009 1.873,-4.084 2.603,-6.208c0.21,-0.61 -0.756,-0.872 -0.964,-0.266c-0.702,2.044 -1.537,4.036 -2.502,5.969c-0.287,0.575 0.575,1.082 0.863,0.505z" fill="#000000"></path></g></g></svg>